<svg xmlns="http://www.w3.org/2000/svg" viewBox="0 0 1600 900" preserveAspectRatio="xMidYMid slice">
  <defs>
    <radialGradient id="bg" cx="50%" cy="55%" r="80%">
      <stop offset="0%" stop-color="#0a0e22"/>
      <stop offset="60%" stop-color="#05060a"/>
      <stop offset="100%" stop-color="#000000"/>
    </radialGradient>
    <radialGradient id="sun" cx="50%" cy="50%" r="50%">
      <stop offset="0%" stop-color="#fff2c4"/>
      <stop offset="40%" stop-color="#ffd56b"/>
      <stop offset="100%" stop-color="#ffd56b" stop-opacity="0"/>
    </radialGradient>
    <radialGradient id="atmo" cx="50%" cy="50%" r="50%">
      <stop offset="60%" stop-color="#4ea0ff" stop-opacity="0"/>
      <stop offset="100%" stop-color="#4ea0ff" stop-opacity="0.5"/>
    </radialGradient>
  </defs>

  <rect width="1600" height="900" fill="url(#bg)"/>

  <g fill="#ffffff">
    <circle cx="120"  cy="160" r="0.8"/>
    <circle cx="280"  cy="80"  r="1.2"/>
    <circle cx="430"  cy="240" r="0.6"/>
    <circle cx="610"  cy="120" r="1.0"/>
    <circle cx="780"  cy="60"  r="0.7"/>
    <circle cx="980"  cy="200" r="1.4"/>
    <circle cx="1180" cy="140" r="0.9"/>
    <circle cx="1380" cy="300" r="0.8"/>
    <circle cx="1500" cy="80"  r="1.1"/>
    <circle cx="80"   cy="780" r="0.7"/>
    <circle cx="320"  cy="700" r="1.3"/>
    <circle cx="540"  cy="820" r="0.6"/>
    <circle cx="760"  cy="760" r="0.9"/>
    <circle cx="1020" cy="820" r="1.0"/>
    <circle cx="1260" cy="700" r="0.8"/>
    <circle cx="1480" cy="780" r="1.2"/>
  </g>

  <circle cx="800" cy="495" r="120" fill="url(#sun)"/>
  <circle cx="800" cy="495" r="42"  fill="#fff2c4"/>

  <g transform="translate(1180,495)">
    <circle r="46" fill="url(#atmo)"/>
    <circle r="28" fill="#4ea0ff"/>
  </g>
</svg>
